<mxfile host="app.diagrams.net" agent="Mozilla/5.0 (Windows NT 10.0; Win64; x64; rv:130.0) Gecko/20100101 Firefox/130.0" version="24.7.16">
  <diagram name="Page-1" id="VD9JiFC_eGQN4yMPJlUf">
    <mxGraphModel dx="1434" dy="774" grid="1" gridSize="10" guides="1" tooltips="1" connect="1" arrows="1" fold="1" page="1" pageScale="1" pageWidth="850" pageHeight="1100" math="0" shadow="0">
      <root>
        <mxCell id="0" />
        <mxCell id="1" parent="0" />
        <mxCell id="PuQCPOW6XYrhQ6ave3AB-8" value="" style="shape=folder;fontStyle=1;spacingTop=10;tabWidth=40;tabHeight=14;tabPosition=left;html=1;whiteSpace=wrap;" parent="1" vertex="1">
          <mxGeometry x="660" y="150" width="450" height="280" as="geometry" />
        </mxCell>
        <mxCell id="PuQCPOW6XYrhQ6ave3AB-49" value="Rama Produccion" style="verticalAlign=top;align=left;spacingTop=8;spacingLeft=2;spacingRight=12;shape=cube;size=10;direction=south;fontStyle=4;html=1;whiteSpace=wrap;" parent="1" vertex="1">
          <mxGeometry x="680" y="240" width="410" height="160" as="geometry" />
        </mxCell>
        <mxCell id="PuQCPOW6XYrhQ6ave3AB-3" value="" style="shape=folder;fontStyle=1;spacingTop=10;tabWidth=40;tabHeight=14;tabPosition=left;html=1;whiteSpace=wrap;" parent="1" vertex="1">
          <mxGeometry x="545" y="780" width="660" height="220" as="geometry" />
        </mxCell>
        <mxCell id="PuQCPOW6XYrhQ6ave3AB-1" value="Navegador web" style="verticalAlign=top;align=left;spacingTop=8;spacingLeft=2;spacingRight=12;shape=cube;size=10;direction=south;fontStyle=4;html=1;whiteSpace=wrap;" parent="1" vertex="1">
          <mxGeometry x="600" y="850" width="170" height="90" as="geometry" />
        </mxCell>
        <mxCell id="PuQCPOW6XYrhQ6ave3AB-5" value="Clientes" style="text;align=center;fontStyle=1;verticalAlign=middle;spacingLeft=3;spacingRight=3;strokeColor=none;rotatable=0;points=[[0,0.5],[1,0.5]];portConstraint=eastwest;html=1;" parent="1" vertex="1">
          <mxGeometry x="810" y="790" width="80" height="26" as="geometry" />
        </mxCell>
        <mxCell id="PuQCPOW6XYrhQ6ave3AB-6" value="App PWA" style="verticalAlign=top;align=left;spacingTop=8;spacingLeft=2;spacingRight=12;shape=cube;size=10;direction=south;fontStyle=4;html=1;whiteSpace=wrap;" parent="1" vertex="1">
          <mxGeometry x="795" y="850" width="170" height="90" as="geometry" />
        </mxCell>
        <mxCell id="PuQCPOW6XYrhQ6ave3AB-7" value="Dispositivo medidor" style="verticalAlign=top;align=left;spacingTop=8;spacingLeft=2;spacingRight=12;shape=cube;size=10;direction=south;fontStyle=4;html=1;whiteSpace=wrap;" parent="1" vertex="1">
          <mxGeometry x="990" y="850" width="170" height="90" as="geometry" />
        </mxCell>
        <mxCell id="PuQCPOW6XYrhQ6ave3AB-9" value="Repositorio Github" style="text;align=center;fontStyle=1;verticalAlign=middle;spacingLeft=3;spacingRight=3;strokeColor=none;rotatable=0;points=[[0,0.5],[1,0.5]];portConstraint=eastwest;html=1;" parent="1" vertex="1">
          <mxGeometry x="825" y="170" width="80" height="26" as="geometry" />
        </mxCell>
        <mxCell id="PuQCPOW6XYrhQ6ave3AB-11" value="Rama frontend" style="verticalAlign=top;align=left;spacingTop=8;spacingLeft=2;spacingRight=12;shape=cube;size=10;direction=south;fontStyle=4;html=1;whiteSpace=wrap;" parent="1" vertex="1">
          <mxGeometry x="695" y="290" width="140" height="70" as="geometry" />
        </mxCell>
        <mxCell id="PuQCPOW6XYrhQ6ave3AB-12" value="Rama backend" style="verticalAlign=top;align=left;spacingTop=8;spacingLeft=2;spacingRight=12;shape=cube;size=10;direction=south;fontStyle=4;html=1;whiteSpace=wrap;" parent="1" vertex="1">
          <mxGeometry x="930" y="290" width="140" height="70" as="geometry" />
        </mxCell>
        <mxCell id="PuQCPOW6XYrhQ6ave3AB-13" value="" style="shape=folder;fontStyle=1;spacingTop=10;tabWidth=40;tabHeight=14;tabPosition=left;html=1;whiteSpace=wrap;" parent="1" vertex="1">
          <mxGeometry x="970" y="460" width="420" height="250" as="geometry" />
        </mxCell>
        <mxCell id="PuQCPOW6XYrhQ6ave3AB-14" value="OracleCloud" style="text;align=center;fontStyle=1;verticalAlign=middle;spacingLeft=3;spacingRight=3;strokeColor=none;rotatable=0;points=[[0,0.5],[1,0.5]];portConstraint=eastwest;html=1;" parent="1" vertex="1">
          <mxGeometry x="1135" y="480" width="80" height="26" as="geometry" />
        </mxCell>
        <mxCell id="PuQCPOW6XYrhQ6ave3AB-15" value="" style="shape=folder;fontStyle=1;spacingTop=10;tabWidth=40;tabHeight=14;tabPosition=left;html=1;whiteSpace=wrap;" parent="1" vertex="1">
          <mxGeometry x="410" y="470" width="400" height="250" as="geometry" />
        </mxCell>
        <mxCell id="PuQCPOW6XYrhQ6ave3AB-16" value="Vercel" style="text;align=center;fontStyle=1;verticalAlign=middle;spacingLeft=3;spacingRight=3;strokeColor=none;rotatable=0;points=[[0,0.5],[1,0.5]];portConstraint=eastwest;html=1;" parent="1" vertex="1">
          <mxGeometry x="575" y="490" width="80" height="26" as="geometry" />
        </mxCell>
        <mxCell id="PuQCPOW6XYrhQ6ave3AB-17" value="Pagina web energy meter" style="verticalAlign=top;align=left;spacingTop=8;spacingLeft=2;spacingRight=12;shape=cube;size=10;direction=south;fontStyle=4;html=1;whiteSpace=wrap;" parent="1" vertex="1">
          <mxGeometry x="555" y="560" width="140" height="70" as="geometry" />
        </mxCell>
        <mxCell id="PuQCPOW6XYrhQ6ave3AB-18" value="Oracle cloud database" style="verticalAlign=top;align=left;spacingTop=8;spacingLeft=2;spacingRight=12;shape=cube;size=10;direction=south;fontStyle=4;html=1;whiteSpace=wrap;" parent="1" vertex="1">
          <mxGeometry x="1240" y="570" width="140" height="70" as="geometry" />
        </mxCell>
        <mxCell id="PuQCPOW6XYrhQ6ave3AB-20" value="" style="shape=folder;fontStyle=1;spacingTop=10;tabWidth=40;tabHeight=14;tabPosition=left;html=1;whiteSpace=wrap;" parent="1" vertex="1">
          <mxGeometry x="990" y="523" width="190" height="124" as="geometry" />
        </mxCell>
        <mxCell id="PuQCPOW6XYrhQ6ave3AB-21" value="Instancia" style="text;align=center;fontStyle=1;verticalAlign=middle;spacingLeft=3;spacingRight=3;strokeColor=none;rotatable=0;points=[[0,0.5],[1,0.5]];portConstraint=eastwest;html=1;" parent="1" vertex="1">
          <mxGeometry x="1045" y="537" width="80" height="26" as="geometry" />
        </mxCell>
        <mxCell id="PuQCPOW6XYrhQ6ave3AB-22" value="API" style="verticalAlign=top;align=left;spacingTop=8;spacingLeft=2;spacingRight=12;shape=cube;size=10;direction=south;fontStyle=4;html=1;whiteSpace=wrap;" parent="1" vertex="1">
          <mxGeometry x="1015" y="563" width="140" height="70" as="geometry" />
        </mxCell>
        <mxCell id="PuQCPOW6XYrhQ6ave3AB-25" style="edgeStyle=orthogonalEdgeStyle;rounded=0;orthogonalLoop=1;jettySize=auto;html=1;entryX=0;entryY=0;entryDx=0;entryDy=80;entryPerimeter=0;dashed=1;endArrow=none;endFill=0;" parent="1" source="PuQCPOW6XYrhQ6ave3AB-22" target="PuQCPOW6XYrhQ6ave3AB-7" edge="1">
          <mxGeometry relative="1" as="geometry" />
        </mxCell>
        <mxCell id="PuQCPOW6XYrhQ6ave3AB-26" value="&lt;div&gt;TCP - IP&lt;/div&gt;Puerto MQTT" style="edgeLabel;html=1;align=center;verticalAlign=middle;resizable=0;points=[];" parent="PuQCPOW6XYrhQ6ave3AB-25" vertex="1" connectable="0">
          <mxGeometry x="-0.0225" y="2" relative="1" as="geometry">
            <mxPoint x="1" as="offset" />
          </mxGeometry>
        </mxCell>
        <mxCell id="PuQCPOW6XYrhQ6ave3AB-31" style="edgeStyle=orthogonalEdgeStyle;rounded=0;orthogonalLoop=1;jettySize=auto;html=1;entryX=0;entryY=0;entryDx=40;entryDy=140;entryPerimeter=0;dashed=1;endArrow=none;endFill=0;exitX=0;exitY=0;exitDx=30;exitDy=0;exitPerimeter=0;" parent="1" source="PuQCPOW6XYrhQ6ave3AB-22" target="PuQCPOW6XYrhQ6ave3AB-18" edge="1">
          <mxGeometry relative="1" as="geometry">
            <mxPoint x="1095" y="643" as="sourcePoint" />
            <mxPoint x="1090" y="860" as="targetPoint" />
          </mxGeometry>
        </mxCell>
        <mxCell id="PuQCPOW6XYrhQ6ave3AB-50" value="OCDB TCP" style="edgeLabel;html=1;align=center;verticalAlign=middle;resizable=0;points=[];" parent="PuQCPOW6XYrhQ6ave3AB-31" vertex="1" connectable="0">
          <mxGeometry x="0.5119" y="-3" relative="1" as="geometry">
            <mxPoint x="-10" y="-5" as="offset" />
          </mxGeometry>
        </mxCell>
        <mxCell id="PuQCPOW6XYrhQ6ave3AB-33" style="edgeStyle=orthogonalEdgeStyle;rounded=0;orthogonalLoop=1;jettySize=auto;html=1;entryX=0;entryY=0;entryDx=70;entryDy=75;entryPerimeter=0;dashed=1;endArrow=none;endFill=0;" parent="1" source="PuQCPOW6XYrhQ6ave3AB-1" target="PuQCPOW6XYrhQ6ave3AB-17" edge="1">
          <mxGeometry relative="1" as="geometry" />
        </mxCell>
        <mxCell id="PuQCPOW6XYrhQ6ave3AB-35" value="HTTPS TCP" style="edgeLabel;html=1;align=center;verticalAlign=middle;resizable=0;points=[];" parent="PuQCPOW6XYrhQ6ave3AB-33" vertex="1" connectable="0">
          <mxGeometry x="-0.0747" y="-1" relative="1" as="geometry">
            <mxPoint as="offset" />
          </mxGeometry>
        </mxCell>
        <mxCell id="PuQCPOW6XYrhQ6ave3AB-34" style="edgeStyle=orthogonalEdgeStyle;rounded=0;orthogonalLoop=1;jettySize=auto;html=1;entryX=0;entryY=0;entryDx=70;entryDy=10;entryPerimeter=0;dashed=1;endArrow=none;endFill=0;" parent="1" source="PuQCPOW6XYrhQ6ave3AB-6" target="PuQCPOW6XYrhQ6ave3AB-17" edge="1">
          <mxGeometry relative="1" as="geometry">
            <Array as="points">
              <mxPoint x="850" y="670" />
              <mxPoint x="685" y="670" />
            </Array>
          </mxGeometry>
        </mxCell>
        <mxCell id="PuQCPOW6XYrhQ6ave3AB-37" value="HTTPS TCP" style="edgeLabel;html=1;align=center;verticalAlign=middle;resizable=0;points=[];" parent="PuQCPOW6XYrhQ6ave3AB-34" vertex="1" connectable="0">
          <mxGeometry x="-0.4278" y="-1" relative="1" as="geometry">
            <mxPoint x="-1" as="offset" />
          </mxGeometry>
        </mxCell>
        <mxCell id="PuQCPOW6XYrhQ6ave3AB-38" style="edgeStyle=orthogonalEdgeStyle;rounded=0;orthogonalLoop=1;jettySize=auto;html=1;entryX=0;entryY=0;entryDx=40;entryDy=140;entryPerimeter=0;dashed=1;endArrow=none;endFill=0;" parent="1" source="PuQCPOW6XYrhQ6ave3AB-17" target="PuQCPOW6XYrhQ6ave3AB-22" edge="1">
          <mxGeometry relative="1" as="geometry" />
        </mxCell>
        <mxCell id="PuQCPOW6XYrhQ6ave3AB-39" value="Peticiones HTTPS TCP" style="edgeLabel;html=1;align=center;verticalAlign=middle;resizable=0;points=[];" parent="PuQCPOW6XYrhQ6ave3AB-38" vertex="1" connectable="0">
          <mxGeometry x="0.0696" y="2" relative="1" as="geometry">
            <mxPoint x="13" y="-16" as="offset" />
          </mxGeometry>
        </mxCell>
        <mxCell id="PuQCPOW6XYrhQ6ave3AB-40" style="edgeStyle=orthogonalEdgeStyle;rounded=0;orthogonalLoop=1;jettySize=auto;html=1;entryX=-0.029;entryY=0.157;entryDx=0;entryDy=0;entryPerimeter=0;dashed=1;endArrow=classic;endFill=1;" parent="1" source="PuQCPOW6XYrhQ6ave3AB-11" target="PuQCPOW6XYrhQ6ave3AB-17" edge="1">
          <mxGeometry relative="1" as="geometry" />
        </mxCell>
        <mxCell id="PuQCPOW6XYrhQ6ave3AB-51" value="SSH" style="edgeLabel;html=1;align=center;verticalAlign=middle;resizable=0;points=[];" parent="PuQCPOW6XYrhQ6ave3AB-40" vertex="1" connectable="0">
          <mxGeometry x="-0.3024" y="-1" relative="1" as="geometry">
            <mxPoint as="offset" />
          </mxGeometry>
        </mxCell>
        <mxCell id="PuQCPOW6XYrhQ6ave3AB-41" style="edgeStyle=orthogonalEdgeStyle;rounded=0;orthogonalLoop=1;jettySize=auto;html=1;entryX=0.029;entryY=0.786;entryDx=0;entryDy=0;entryPerimeter=0;dashed=1;endArrow=classic;endFill=1;" parent="1" source="PuQCPOW6XYrhQ6ave3AB-12" target="PuQCPOW6XYrhQ6ave3AB-22" edge="1">
          <mxGeometry relative="1" as="geometry">
            <Array as="points">
              <mxPoint x="1030" y="462" />
              <mxPoint x="1045" y="462" />
            </Array>
          </mxGeometry>
        </mxCell>
        <mxCell id="PuQCPOW6XYrhQ6ave3AB-52" value="SSH" style="edgeLabel;html=1;align=center;verticalAlign=middle;resizable=0;points=[];" parent="PuQCPOW6XYrhQ6ave3AB-41" vertex="1" connectable="0">
          <mxGeometry x="-0.1443" y="-1" relative="1" as="geometry">
            <mxPoint y="-4" as="offset" />
          </mxGeometry>
        </mxCell>
      </root>
    </mxGraphModel>
  </diagram>
</mxfile>
